<svg width="450" height="336" viewBox="0 0 450 336" fill="none" xmlns="http://www.w3.org/2000/svg">
<path d="M0 294.927H450V294.702H0V294.927Z" fill="#EEEEEE"/>
<path d="M375.101 309.188H404.911V309.413H375.101V309.188Z" fill="#EEEEEE"/>
<path d="M290.274 311.63H298.098V311.855H290.274V311.63Z" fill="#EEEEEE"/>
<path d="M356.927 300.83H374.2V301.055H356.927V300.83" fill="#EEEEEE"/>
<path d="M47.2131 302.342H86.087V302.567H47.2131V302.342Z" fill="#EEEEEE"/>
<path d="M94.1004 302.342H99.8001V302.567H94.1004V302.342Z" fill="#EEEEEE"/>
<path d="M118.324 306.367H202.632V306.142H118.324V306.367Z" fill="#EEEEEE"/>
<path d="M39.5237 0.224984C36.8146 0.224984 34.6113 2.42821 34.6113 5.13631V249.425C34.6113 252.134 36.8146 254.337 39.5237 254.337H213.313C216.02 254.337 218.224 252.134 218.224 249.425V5.13631C218.224 2.42821 216.02 0.224984 213.313 0.224984H39.5237ZM213.313 254.562H39.5237C36.6909 254.562 34.3863 252.258 34.3863 249.425V5.13631C34.3863 2.30491 36.6909 -1.62189e-05 39.5237 -1.62189e-05H213.313C216.144 -1.62189e-05 218.449 2.30491 218.449 5.13631V249.425C218.449 252.258 216.144 254.562 213.313 254.562Z" fill="#EEEEEE"/>
<path d="M234.191 0.224984C231.483 0.224984 229.28 2.42821 229.28 5.13631V249.425C229.28 252.134 231.483 254.337 234.191 254.337H407.98C410.688 254.337 412.892 252.134 412.892 249.425V5.13631C412.892 2.42821 410.688 0.224984 407.98 0.224984H234.191ZM407.98 254.562H234.191C231.359 254.562 229.055 252.258 229.055 249.425V5.13631C229.055 2.30491 231.359 -1.62189e-05 234.191 -1.62189e-05H407.98C410.812 -1.62189e-05 413.117 2.30491 413.117 5.13631V249.425C413.117 252.258 410.812 254.562 407.98 254.562Z" fill="#EEEEEE"/>
<path d="M284.89 204.751H393.017C393.017 208.722 389.893 211.981 385.927 212.159C374.306 212.683 356.431 214.521 350.762 220.951C340.196 232.936 341.219 275.036 353.876 284.788C357.845 287.845 369.414 293.916 369.414 293.916H308.493C308.493 293.916 319.304 287.722 323.06 284.788C335.645 274.956 336.012 232.881 325.396 220.951C319.949 214.831 303.194 212.853 291.952 212.23C287.986 212.009 284.89 208.724 284.89 204.751" fill="#F8F8F9"/>
<path d="M379.623 212.551C368.64 213.432 355.478 215.602 350.762 220.951C349.367 222.534 348.179 224.654 347.188 227.143H329.027C328.01 224.652 326.802 222.531 325.396 220.951C320.662 215.632 307.391 213.443 296.617 212.551H379.623Z" fill="#E9E9E8"/>
<path d="M330.949 204.804L332.419 187.997H311.106L309.635 204.804H330.949Z" fill="#EEEEEE"/>
<path d="M330.949 204.804L332.419 187.997H333.567L332.096 204.804H330.949Z" fill="#E3E3E2"/>
<path d="M328.926 203.09L330.096 189.711H313.128L311.958 203.09H328.926Z" fill="#F4F4F4"/>
<path d="M327.625 201.989L328.603 190.813H314.429L313.451 201.989H327.625" fill="#FCFDFD"/>
<path d="M337.863 204.751H359.273L356.898 177.599H335.487L337.863 204.751Z" fill="#E9E9E8"/>
<path d="M337.863 204.751H336.84L334.464 177.599H335.487L337.863 204.751Z" fill="#E3E3E2"/>
<path d="M339.803 201.983H356.848L354.956 180.367H337.912L339.803 201.983Z" fill="#F4F4F4"/>
<path d="M341.051 200.204H355.289L353.71 182.146H339.471L341.051 200.204" fill="#FCFDFD"/>
<path d="M348.242 190.271C347.275 191.238 345.707 191.238 344.74 190.271C343.772 189.303 343.772 187.735 344.74 186.768C345.707 185.801 347.275 185.801 348.242 186.768C349.21 187.735 349.21 189.303 348.242 190.271Z" fill="#EEEEEE"/>
<path d="M347.194 193.305C347.903 192.596 349.052 192.596 349.76 193.305C350.902 194.447 350.093 196.401 348.476 196.401C346.861 196.401 346.052 194.447 347.194 193.305Z" fill="#F4F4F4"/>
<path d="M73.5553 173.794H174.525V62.1234H73.5553V173.794Z" fill="#E3E3E2"/>
<path d="M70.3308 173.794H175.055V62.1234H70.3308V173.794Z" fill="#F4F4F4"/>
<path d="M74.7612 168.663H170.792V65.6856H74.7612V168.663Z" fill="white"/>
<path d="M74.7612 168.663H77.5382V65.6856H74.7612V168.663Z" fill="#E3E3E2"/>
<path d="M77.2415 139.737V142.514H171.038V139.737H77.2415Z" fill="#E3E3E2"/>
<path d="M74.7612 139.737H172.281V135.076H74.7612V139.737Z" fill="#F4F4F4"/>
<path d="M340.548 81.2412C340.548 81.2412 341.449 75.3021 337.117 71.4942C332.786 67.6863 333.167 65.421 334.405 65.1258C335.642 64.8306 336.784 68.6385 338.688 69.6852C338.688 69.6852 338.748 64.2591 336.814 62.2602C334.88 60.2613 333.866 55.1106 335.705 55.0206C337.546 54.9297 337.737 58.0788 338.117 60.3126C338.498 62.5455 340.548 65.6874 340.548 65.6874C340.548 65.6874 340.949 60.8319 342.199 58.833C343.448 56.8332 340.116 52.2639 341.401 50.265C342.687 48.2661 344.972 52.074 344.781 56.358C344.59 60.6411 341.734 65.2113 342.401 69.6852C342.401 69.6852 343.661 66.5442 344.792 66.258C345.923 65.9727 347.066 63.8946 347.827 63.1251C348.589 62.3556 349.541 65.0205 347.827 67.4964C346.114 69.9714 341.734 76.5927 342.401 81.945L340.548 81.2412" fill="#E9E9E8"/>
<path d="M337.959 78.5385L336.541 87.4395C336.102 90.189 338.226 92.6784 341.01 92.6784H342.524C345.307 92.6784 347.431 90.189 346.992 87.4395L345.574 78.5385H337.959" fill="#F8F8F9"/>
<path d="M259.15 94.545H359.412V89.3932H259.15V94.545Z" fill="#E9E9E8"/>
<path d="M263.765 89.3934H268.182V70.4044H263.765V89.3934Z" fill="#F4F4F4"/>
<path d="M285.123 89.3934H289.54V70.4044H285.123V89.3934Z" fill="#F4F4F4"/>
<path d="M317.012 88.6428L312.659 89.3934L309.434 70.6806L313.788 69.93L317.012 88.6428Z" fill="#F4F4F4"/>
<path d="M269.238 89.3934H273.655V72.9068H269.238V89.3934Z" fill="#F4F4F4"/>
<path d="M279.391 89.3934H283.808V72.9068H279.391V89.3934Z" fill="#F4F4F4"/>
<path d="M305.017 89.3934H309.435V72.9068H305.017V89.3934Z" fill="#F4F4F4"/>
<path d="M298.918 88.4349L294.606 89.3934L291.03 73.2987L295.342 72.3411L298.918 88.4349" fill="#F4F4F4"/>
<path d="M275.266 89.3934H277.474V69.4619H275.266V89.3934Z" fill="#F4F4F4"/>
<path d="M301.539 89.3934H303.747V69.4619H301.539V89.3934Z" fill="#F4F4F4"/>
<path d="M259.15 133.002H359.412V127.85H259.15V133.002Z" fill="#E9E9E8"/>
<path d="M350.381 127.85H354.798V108.862H350.381V127.85Z" fill="#F4F4F4"/>
<path d="M329.022 127.85H333.439V108.862H329.022V127.85Z" fill="#F4F4F4"/>
<path d="M301.549 127.101L305.903 127.85L309.127 109.138L304.775 108.387L301.549 127.101" fill="#F4F4F4"/>
<path d="M344.907 127.85H349.324V111.364H344.907V127.85Z" fill="#F4F4F4"/>
<path d="M334.755 127.85H339.171V111.364H334.755V127.85Z" fill="#F4F4F4"/>
<path d="M309.128 127.85H313.545V111.364H309.128V127.85Z" fill="#F4F4F4"/>
<path d="M319.644 126.893L323.956 127.85L327.533 111.757L323.22 110.798L319.644 126.893" fill="#F4F4F4"/>
<path d="M341.087 127.85H343.296V107.919H341.087V127.85Z" fill="#F4F4F4"/>
<path d="M314.815 127.85H317.023V107.919H314.815V127.85Z" fill="#F4F4F4"/>
<path d="M268.771 127.68H290.292V112.821H268.771V127.68Z" fill="#F8F8F9"/>
<path d="M399.5 325.157C399.5 330.786 321.375 335.348 225 335.348C128.626 335.348 50.5002 330.786 50.5002 325.157C50.5002 319.529 128.626 314.966 225 314.966C321.375 314.966 399.5 319.529 399.5 325.157" fill="#F8F8F9"/>
<path d="M299.221 302.651C299.221 302.651 294.764 292.926 299.857 283.338C304.95 273.751 306.427 271.492 303.179 269.529C299.933 267.564 298.444 277.198 298.444 277.198C298.444 277.198 295.707 270.57 297.967 263.633C300.227 256.697 301.643 245.401 298.557 244.189C295.471 242.977 297.968 258.282 295.291 263.499C295.291 263.499 293.042 257.691 292.671 252.12C292.301 246.549 292.879 237.653 290.443 235.371C288.005 233.089 286.444 234.668 288.84 246.963C291.235 259.257 291.217 269.251 291.217 269.251C291.217 269.251 285.927 253.124 282.377 252.652C278.827 252.183 278.832 257.405 281.87 261.936C284.909 266.466 290.769 274.581 291.731 278.757C291.731 278.757 285.925 266.62 280.702 270.34C275.479 274.059 285.248 281.391 289.601 284.039C293.955 286.689 296.979 303.294 296.979 303.294L299.221 302.651" fill="#4870C0"/>
<path d="M296.979 303.294C296.979 303.294 293.955 286.689 289.601 284.039C286.128 281.927 279.207 276.832 279.203 272.97C279.203 271.991 279.646 271.092 280.702 270.34C281.396 269.845 282.1 269.631 282.8 269.631C287.365 269.631 291.731 278.757 291.731 278.757C290.769 274.581 284.909 266.466 281.87 261.936C280.409 259.758 279.65 257.42 279.649 255.632C279.649 253.857 280.395 252.623 281.946 252.623C282.083 252.623 282.227 252.633 282.377 252.652C285.927 253.124 291.217 269.251 291.217 269.251C291.217 269.251 291.217 269.248 291.217 269.243C291.217 269.243 291.217 269.243 291.217 269.242C291.217 269.242 291.217 269.242 291.217 269.241V269.24V269.24C291.216 268.86 291.188 259.016 288.84 246.963C288 242.654 287.646 239.662 287.646 237.691C287.646 235.403 288.122 234.49 288.865 234.49C289.31 234.49 289.85 234.816 290.443 235.371C292.879 237.653 292.301 246.549 292.671 252.12C293.042 257.691 295.291 263.499 295.291 263.499C297.867 258.479 295.653 244.121 298.23 244.121C298.332 244.121 298.441 244.143 298.557 244.189C299.826 244.688 300.334 246.89 300.335 249.793C300.335 251.185 300.219 252.735 300.015 254.337C300.005 254.412 299.996 254.488 299.986 254.562C299.573 257.685 298.832 260.979 297.967 263.633C297.307 265.659 297.073 267.658 297.073 269.473C297.072 273.875 298.444 277.198 298.444 277.198C298.444 277.198 299.669 269.265 302.324 269.265C302.594 269.265 302.88 269.346 303.179 269.529C304.343 270.232 304.9 270.974 304.901 272.077C304.904 274.053 303.125 277.186 299.857 283.338C298.007 286.821 297.417 290.322 297.416 293.368C297.414 298.708 299.221 302.651 299.221 302.651L296.979 303.294" fill="#395EB4"/>
<path d="M295.703 306.64C295.703 306.64 300.043 296.849 294.836 287.338C289.628 277.827 288.125 275.591 291.348 273.579C294.571 271.566 296.175 281.177 296.175 281.177C296.175 281.177 298.832 274.509 296.49 267.607C294.147 260.705 292.595 249.43 295.666 248.172C298.737 246.914 296.424 262.255 299.164 267.432C299.164 267.432 301.343 261.592 301.647 256.015C301.95 250.439 301.265 241.553 303.674 239.234C306.083 236.917 307.663 238.472 305.416 250.801C303.169 263.13 303.306 273.123 303.306 273.123C303.306 273.123 308.402 256.918 311.946 256.395C315.49 255.872 315.548 261.094 312.564 265.669C309.58 270.244 303.818 278.446 302.907 282.636C302.907 282.636 308.567 270.414 313.834 274.055C319.1 277.697 309.421 285.173 305.099 287.886C300.777 290.599 297.953 307.248 297.953 307.248L295.703 306.64" fill="#4870C0"/>
<path d="M315.722 299.66H279.866L282.767 325.319H312.82L315.722 299.66" fill="#1D2A30"/>
<path d="M386.145 217.287H356.197C359.34 215.89 363.25 214.858 367.385 214.097H379.189C380.044 214.097 380.763 213.397 380.975 212.447C382.708 212.323 384.374 212.229 385.927 212.159C386.791 212.12 387.615 211.935 388.375 211.628V215.058C388.375 216.289 387.377 217.287 386.145 217.287V217.287ZM319.902 217.287H245.79L245.689 215.688H248.302C249.256 215.688 250.049 215.002 250.215 214.097H308.668C311.601 214.638 314.431 215.315 316.961 216.161C316.963 216.162 316.967 216.163 316.968 216.164C316.975 216.166 316.982 216.168 316.988 216.17C316.991 216.171 316.995 216.173 316.999 216.174C317.004 216.176 317.011 216.177 317.016 216.18C317.021 216.181 317.026 216.183 317.031 216.185C317.036 216.186 317.041 216.188 317.046 216.19C317.05 216.191 317.057 216.194 317.061 216.195C317.066 216.196 317.071 216.198 317.076 216.2C317.096 216.206 317.117 216.213 317.137 216.221C317.138 216.221 317.138 216.221 317.138 216.221C317.149 216.224 317.158 216.228 317.169 216.231C317.169 216.231 317.17 216.231 317.171 216.232C318.129 216.558 319.044 216.909 319.902 217.287V217.287ZM239.869 217.287H229.28V215.688H239.751L239.869 217.287ZM229.055 217.287H218.449V215.688H229.055V217.287ZM218.224 217.287H208.473L208.59 215.688H218.224V217.287ZM202.552 217.287H196.64C195.628 217.287 194.773 216.612 194.501 215.688H202.652L202.552 217.287ZM388.375 204.751H381.038V56.6937V44.5023H386.145C387.377 44.5023 388.375 45.5013 388.375 46.7325V204.751" fill="#CECDCC"/>
<path d="M218.224 217.287H218.449V215.688H218.224V217.287Z" fill="#BDBCBA"/>
<path d="M229.055 217.287H229.28V215.688H229.055V217.287Z" fill="#BDBCBA"/>
<path d="M319.902 217.287C319.044 216.909 318.129 216.558 317.171 216.232C318.129 216.558 319.045 216.91 319.902 217.287ZM317.169 216.231C317.158 216.228 317.149 216.224 317.138 216.221C317.148 216.224 317.158 216.228 317.169 216.231ZM317.137 216.221C317.117 216.213 317.096 216.206 317.076 216.2C317.096 216.206 317.117 216.213 317.137 216.221ZM317.061 216.195C317.057 216.194 317.05 216.191 317.046 216.19C317.051 216.192 317.057 216.194 317.061 216.195ZM317.031 216.185C317.026 216.183 317.021 216.181 317.016 216.18C317.021 216.181 317.027 216.183 317.031 216.185ZM316.999 216.174C316.995 216.173 316.991 216.171 316.988 216.17C316.992 216.172 316.994 216.172 316.999 216.174ZM316.968 216.164C316.967 216.163 316.963 216.162 316.961 216.161C316.963 216.162 316.966 216.163 316.968 216.164ZM380.975 212.447C381.016 212.262 381.038 212.067 381.038 211.866V204.751H388.375V211.628C387.615 211.935 386.791 212.12 385.927 212.159C384.374 212.229 382.708 212.323 380.975 212.447" fill="#C5C4C2"/>
<path d="M356.197 217.287H319.902C319.045 216.91 318.129 216.558 317.171 216.232C317.17 216.231 317.169 216.231 317.169 216.231C317.158 216.228 317.148 216.224 317.138 216.221C317.138 216.221 317.138 216.221 317.137 216.221C317.117 216.213 317.096 216.206 317.076 216.2C317.071 216.198 317.066 216.196 317.061 216.195C317.057 216.194 317.051 216.192 317.046 216.19C317.041 216.188 317.036 216.186 317.031 216.185C317.027 216.183 317.021 216.181 317.016 216.18C317.011 216.177 317.004 216.176 316.999 216.174C316.994 216.172 316.992 216.172 316.988 216.17C316.982 216.168 316.975 216.166 316.968 216.164C316.966 216.163 316.963 216.162 316.961 216.161C314.431 215.315 311.601 214.638 308.668 214.097H367.385C363.25 214.858 359.34 215.89 356.197 217.287" fill="#B8B8B6"/>
<path d="M378.808 214.096H189.303C188.071 214.096 187.073 213.098 187.073 211.866V43.542C187.073 42.3099 188.071 41.3118 189.303 41.3118H378.808C380.04 41.3118 381.038 42.3099 381.038 43.542V211.866C381.038 213.098 380.04 214.096 378.808 214.096Z" fill="#4870C0"/>
<path d="M379.189 214.096H367.385H378.808C379.839 214.096 380.705 213.398 380.962 212.448C380.966 212.448 380.97 212.448 380.975 212.447C380.763 213.397 380.044 214.096 379.189 214.096" fill="#EFEFEE"/>
<path d="M380.962 212.448C381.011 212.262 381.038 212.068 381.038 211.866V204.751V211.866C381.038 212.067 381.016 212.262 380.975 212.447C380.97 212.448 380.966 212.448 380.962 212.448" fill="#EBEAE9"/>
<path d="M378.808 214.096H250.215C250.237 213.981 250.248 213.862 250.248 213.742V212.872V210.79H253.034C253.91 210.79 254.621 210.079 254.621 209.203C254.621 208.327 253.91 207.616 253.034 207.616H187.073V207.609H194.811C195.614 207.609 196.21 206.95 196.21 206.211C196.21 206.032 196.175 205.847 196.099 205.667L194.919 202.882H378.739V65.8413H189.373V160.362H187.073V56.6937H381.038V204.751V211.866C381.038 212.068 381.011 212.262 380.962 212.448C380.705 213.398 379.839 214.096 378.808 214.096Z" fill="#B4CAEC"/>
<path d="M189.373 202.882H378.739V65.8413H189.373V202.882Z" fill="white"/>
<path d="M374.704 51.975C373.135 51.975 371.862 50.4414 371.862 48.5487C371.862 46.656 373.135 45.1215 374.704 45.1215C376.274 45.1215 377.546 46.656 377.546 48.5487C377.546 50.4414 376.274 51.975 374.704 51.975Z" fill="#B4CAEC"/>
<path d="M365.387 51.975C363.818 51.975 362.545 50.4414 362.545 48.5487C362.545 46.656 363.818 45.1215 365.387 45.1215C366.957 45.1215 368.23 46.656 368.23 48.5487C368.23 50.4414 366.957 51.975 365.387 51.975Z" fill="#B4CAEC"/>
<path d="M356.071 51.975C354.501 51.975 353.228 50.4414 353.228 48.5487C353.228 46.656 354.501 45.1215 356.071 45.1215C357.64 45.1215 358.913 46.656 358.913 48.5487C358.913 50.4414 357.64 51.975 356.071 51.975Z" fill="#B4CAEC"/>
<path d="M229.718 81.8397V117.189L220.626 128.153H200.497V81.8397H229.718Z" fill="#4870C0"/>
<path d="M220.626 128.153H200.497V81.8397H229.718V111.959H227.819C225.656 111.959 223.902 113.712 223.902 115.875V117.189H220.626V128.153V128.153ZM205.026 108.639V109.966H219.974V108.639H205.026ZM205.026 103.609V104.936H225.189V103.609H205.026ZM205.026 98.5779V99.9054H225.189V98.5779H205.026ZM205.026 93.5478V94.8753H225.189V93.5478H205.026ZM205.026 88.5177V89.8452H225.189V88.5177H205.026Z" fill="#C7D9F2"/>
<path d="M220.626 128.153V117.189H223.902V124.202L220.626 128.153Z" fill="#9EBAE5"/>
<path d="M205.026 89.8452H225.189V88.5181H205.026V89.8452Z" fill="#9EBAE5"/>
<path d="M205.026 94.8753H225.189V93.5478H205.026V94.8753Z" fill="#9EBAE5"/>
<path d="M205.026 99.9054H225.189V98.5779H205.026V99.9054Z" fill="#9EBAE5"/>
<path d="M205.026 104.936H225.189V103.609H205.026V104.936Z" fill="#9EBAE5"/>
<path d="M205.026 109.966H219.974V108.639H205.026V109.966Z" fill="#9EBAE5"/>
<path d="M276.066 81.8397V117.189L266.974 128.153H246.845V81.8397H276.066Z" fill="#4870C0"/>
<path d="M276.066 112.302C275.576 112.082 275.033 111.959 274.46 111.959H246.845V91.1268C248.388 90.5355 250.062 90.2106 251.812 90.2106C254.891 90.2106 257.74 91.2159 260.048 92.916C259.859 93.1221 259.674 93.3336 259.495 93.5478H251.375V94.8753H258.478C257.674 96.0246 256.99 97.2657 256.449 98.5779H251.375V99.9054H255.957C255.567 101.093 255.288 102.332 255.135 103.609H251.375V104.936H255.021C255.005 105.264 254.997 105.594 254.997 105.926V108.639H251.375V109.967H254.997V111.767H260.397V109.967H265.728H267.462V109.968H271.125V109.967H271.128V104.936H271.537V103.609H271.121C271.087 102.341 270.931 101.102 270.663 99.9054H271.537V98.5779H270.316C269.926 97.2819 269.404 96.0417 268.764 94.8753H271.537V93.5478H267.967C267.966 93.5469 267.965 93.546 267.964 93.5451C269.869 92.565 272.027 92.0106 274.312 92.0106C274.906 92.0106 275.491 92.0484 276.066 92.1213V112.302V112.302ZM265.728 108.639H260.397V105.926C260.397 105.593 260.409 105.263 260.431 104.936H265.728V108.639ZM265.718 103.609H260.59C260.809 102.305 261.211 101.061 261.768 99.9054H265.073C265.448 101.081 265.671 102.323 265.718 103.609ZM264.574 98.5779H262.499C262.863 97.9956 263.269 97.4412 263.713 96.9201C264.035 97.4502 264.323 98.0046 264.574 98.5779ZM265.947 88.5177H263.178C259.987 86.1876 256.057 84.8106 251.812 84.8106C250.095 84.8106 248.431 85.0356 246.845 85.4586V81.8397H276.066V86.6898C275.488 86.6376 274.903 86.6106 274.312 86.6106C271.317 86.6106 268.479 87.2964 265.947 88.5177" fill="#C7D9F2"/>
<path d="M264.308 89.4087C263.943 89.0982 263.566 88.8012 263.178 88.5177H265.947C265.385 88.7886 264.839 89.0865 264.308 89.4087Z" fill="#9EBAE5"/>
<path d="M271.537 94.8753H268.764C268.516 94.4208 268.25 93.9789 267.967 93.5478H271.537V94.8753ZM258.478 94.8753H251.374V93.5478H259.495C259.137 93.9753 258.798 94.4181 258.478 94.8753Z" fill="#9EBAE5"/>
<path d="M271.537 99.9054H270.663C270.563 99.4572 270.446 99.0144 270.316 98.5779H271.537V99.9054ZM265.073 99.9054H261.768C261.988 99.4491 262.232 99.0063 262.499 98.5779H264.574C264.762 99.0099 264.928 99.4527 265.073 99.9054V99.9054ZM255.957 99.9054H251.374V98.5779H256.449C256.269 99.0135 256.105 99.4554 255.957 99.9054Z" fill="#9EBAE5"/>
<path d="M271.537 104.936H271.128V104.126C271.128 103.954 271.125 103.781 271.12 103.609H271.537V104.936ZM265.728 104.936H260.431C260.463 104.487 260.516 104.045 260.59 103.609H265.718C265.724 103.78 265.728 103.953 265.728 104.126V104.936V104.936ZM255.021 104.936H251.374V103.609H255.135C255.082 104.046 255.045 104.49 255.021 104.936Z" fill="#9EBAE5"/>
<path d="M265.728 109.966H260.397V108.639H265.728V109.966ZM254.997 109.966H251.374V108.639H254.997V109.966Z" fill="#9EBAE5"/>
<path d="M322.414 81.8397V117.189L313.322 128.153H293.193V81.8397H322.414" fill="#4870C0"/>
<path d="M313.322 128.153H300.877V117.675C300.877 115.512 299.123 113.759 296.96 113.759H293.193V111.766H293.628V105.926C293.628 104.525 293.477 103.159 293.193 101.841V81.8397H322.414V117.189H313.322V128.153V128.153ZM297.722 108.639V109.966H312.671V108.639H297.722ZM297.722 103.609V104.936H317.885V103.609H297.722ZM297.722 98.5779V99.9054H317.885V98.5779H297.722ZM297.722 93.5478V94.8753H317.885V93.5478H297.722ZM297.722 88.5177V89.8452H317.885V88.5177H297.722Z" fill="#C7D9F2"/>
<path d="M313.322 128.153V117.189H322.414L313.322 128.153Z" fill="#9EBAE5"/>
<path d="M297.722 89.8452H317.885V88.5181H297.722V89.8452Z" fill="#9EBAE5"/>
<path d="M297.722 94.8753H317.885V93.5478H297.722V94.8753Z" fill="#9EBAE5"/>
<path d="M297.722 99.9054H317.885V98.5779H297.722V99.9054Z" fill="#9EBAE5"/>
<path d="M297.722 104.936H317.885V103.609H297.722V104.936Z" fill="#9EBAE5"/>
<path d="M297.722 109.966H312.671V108.639H297.722V109.966Z" fill="#9EBAE5"/>
<path d="M368.762 81.8397V117.189L359.67 128.153H339.541V81.8397H368.762Z" fill="#4870C0"/>
<path d="M359.67 128.153H339.541V81.8397H368.762V117.189H359.67V128.153ZM344.07 108.639V109.966H359.019V108.639H344.07ZM344.07 103.609V104.936H364.234V103.609H344.07ZM344.07 98.5779V99.9054H364.234V98.5779H344.07ZM344.07 93.5478V94.8753H364.234V93.5478H344.07ZM344.07 88.5177V89.8452H364.234V88.5177H344.07Z" fill="#C7D9F2"/>
<path d="M359.67 128.153V117.189H368.762L359.67 128.153" fill="#9EBAE5"/>
<path d="M344.07 89.8452H364.234V88.5181H344.07V89.8452Z" fill="#9EBAE5"/>
<path d="M344.07 94.8753H364.234V93.5478H344.07V94.8753Z" fill="#9EBAE5"/>
<path d="M344.07 99.9054H364.234V98.5779H344.07V99.9054Z" fill="#9EBAE5"/>
<path d="M344.07 104.936H364.234V103.609H344.07V104.936Z" fill="#9EBAE5"/>
<path d="M344.07 109.966H359.019V108.639H344.07V109.966Z" fill="#9EBAE5"/>
<path d="M229.718 143.04V178.388L220.626 189.353H200.497V143.04H229.718Z" fill="#4870C0"/>
<path d="M220.626 189.353H208.35L211.788 171.166H219.974V169.839H212.039L212.739 166.136H225.189V164.809H212.99L213.682 161.151C213.684 161.136 213.687 161.121 213.689 161.105H225.189V159.779H205.026V160.362H200.497V143.04H223.902V149.718H205.026V151.045H223.908C224.019 153.109 225.727 154.748 227.819 154.748H229.718V178.388H220.626V189.353ZM205.026 154.748V156.075H225.189V154.748H205.026Z" fill="#C7D9F2"/>
<path d="M220.626 189.353V178.388H229.718L220.626 189.353Z" fill="#9EBAE5"/>
<path d="M223.908 151.045H205.026V149.718H223.902V150.831C223.902 150.903 223.904 150.974 223.908 151.045Z" fill="#9EBAE5"/>
<path d="M205.026 156.075H225.189V154.748H205.026V156.075Z" fill="#9EBAE5"/>
<path d="M225.189 161.105H213.689C213.693 161.07 213.696 161.036 213.696 161.002C213.695 160.637 213.426 160.362 213.042 160.362H205.026V159.779H225.189V161.105Z" fill="#9EBAE5"/>
<path d="M225.189 166.136H212.739L212.99 164.809H225.189V166.136Z" fill="#9EBAE5"/>
<path d="M219.974 171.167H211.788L212.039 169.839H219.974V171.167Z" fill="#9EBAE5"/>
<path d="M276.066 143.04V178.388L266.974 189.353H246.845V143.04H276.066Z" fill="#4870C0"/>
<path d="M266.974 189.353H246.845V154.748H247.023C247.72 155.831 248.936 156.548 250.319 156.548H276.066V178.388H266.974V189.353ZM251.375 169.839V171.166H266.323V169.839H251.375ZM251.375 164.809V166.136H271.537V164.809H251.375ZM251.375 159.779V161.105H271.537V159.779H251.375Z" fill="#C7D9F2"/>
<path d="M266.974 189.353V178.388H276.066L266.974 189.353Z" fill="#9EBAE5"/>
<path d="M251.374 161.105H271.537V159.779H251.374V161.105Z" fill="#9EBAE5"/>
<path d="M251.374 166.136H271.537V164.809H251.374V166.136Z" fill="#9EBAE5"/>
<path d="M251.374 171.167H266.323V169.839H251.374V171.167Z" fill="#9EBAE5"/>
<path d="M322.414 143.04V178.388L313.322 189.353H293.193V143.04H322.414" fill="#4870C0"/>
<path d="M313.322 189.353H293.193V156.548H296.96C297.636 156.548 298.273 156.377 298.827 156.075H317.885V154.748H300.256C300.649 154.138 300.877 153.411 300.877 152.631V151.045H317.885V149.718H300.877V143.04H322.414V178.388H313.322V189.353V189.353ZM297.722 169.839V171.166H312.671V169.839H297.722ZM297.722 164.809V166.136H317.885V164.809H297.722ZM297.722 159.779V161.105H317.885V159.779H297.722Z" fill="#C7D9F2"/>
<path d="M313.322 189.353V178.388H322.414L313.322 189.353Z" fill="#9EBAE5"/>
<path d="M300.877 151.045H317.885V149.718H300.877V151.045Z" fill="#9EBAE5"/>
<path d="M317.885 156.075H298.827C299.408 155.76 299.9 155.302 300.256 154.748H317.885V156.075" fill="#9EBAE5"/>
<path d="M297.722 161.105H317.885V159.779H297.722V161.105Z" fill="#9EBAE5"/>
<path d="M297.722 166.136H317.885V164.809H297.722V166.136Z" fill="#9EBAE5"/>
<path d="M297.722 171.167H312.671V169.839H297.722V171.167Z" fill="#9EBAE5"/>
<path d="M368.762 143.04V178.388L359.67 189.353H339.541V143.04H368.762Z" fill="#4870C0"/>
<path d="M359.67 189.353H339.541V143.04H368.762V178.388H359.67V189.353ZM344.07 169.839V171.166H359.019V169.839H344.07ZM344.07 164.809V166.136H364.234V164.809H344.07ZM344.07 159.779V161.105H364.234V159.779H344.07ZM344.07 154.748V156.075H364.234V154.748H344.07ZM344.07 149.718V151.045H364.234V149.718H344.07Z" fill="#C7D9F2"/>
<path d="M359.67 189.353V178.388H368.762L359.67 189.353" fill="#9EBAE5"/>
<path d="M344.07 151.045H364.234V149.718H344.07V151.045Z" fill="#9EBAE5"/>
<path d="M344.07 156.075H364.234V154.748H344.07V156.075Z" fill="#9EBAE5"/>
<path d="M344.07 161.105H364.234V159.779H344.07V161.105Z" fill="#9EBAE5"/>
<path d="M344.07 166.136H364.234V164.809H344.07V166.136Z" fill="#9EBAE5"/>
<path d="M344.07 171.167H359.019V169.839H344.07V171.167Z" fill="#9EBAE5"/>
<path d="M293.193 156.548H276.066V154.405C277.429 153.792 278.377 152.422 278.377 150.831V115.875C278.377 115.096 278.15 114.369 277.756 113.759H293.193V128.153H300.877V143.04H293.193V156.548" fill="#E8E8E7"/>
<path d="M300.877 128.153H293.193V113.759H296.96C299.123 113.759 300.877 115.512 300.877 117.675V128.153" fill="#B1C2E8"/>
<path d="M276.066 156.548H250.319C248.936 156.548 247.72 155.831 247.023 154.748H251.375V156.075H271.537V154.748H274.46C275.033 154.748 275.576 154.625 276.066 154.405V156.548" fill="#B1C2E8"/>
<path d="M271.537 156.075H251.374V154.748H264.61H271.537V156.075" fill="#89A7DD"/>
<path d="M296.96 156.548H293.193V143.04H300.877V149.718H297.722V151.045H300.877V152.631C300.877 153.411 300.649 154.138 300.256 154.748H297.722V156.075H298.827C298.273 156.377 297.636 156.548 296.96 156.548" fill="#B1C2E8"/>
<path d="M297.722 151.045H300.877V149.718H297.722V151.045Z" fill="#89A7DD"/>
<path d="M298.827 156.075H297.722V154.748H300.256C299.9 155.302 299.408 155.76 298.827 156.075" fill="#89A7DD"/>
<path d="M293.193 111.766H288.228V105.926C288.228 98.8479 282.914 92.9862 276.066 92.1213V86.6898C284.529 87.4557 291.434 93.7017 293.193 101.841V111.766" fill="#E8E8E7"/>
<path d="M267.964 93.5451C267.069 92.1816 266.006 90.9387 264.803 89.8452H271.537V88.5177H265.947C268.479 87.2964 271.317 86.6106 274.312 86.6106C274.903 86.6106 275.488 86.6376 276.066 86.6898V92.1213C275.491 92.0484 274.906 92.0106 274.312 92.0106C272.027 92.0106 269.869 92.565 267.964 93.5451Z" fill="#B1C2E8"/>
<path d="M271.537 89.8452H264.803C264.641 89.6967 264.476 89.5509 264.308 89.4087C264.839 89.0865 265.385 88.7886 265.947 88.5177H271.537V89.8452Z" fill="#89A7DD"/>
<path d="M293.628 111.766H293.193V101.841C293.477 103.159 293.628 104.525 293.628 105.926V111.766" fill="#B1C2E8"/>
<path d="M260.397 111.766H254.997V109.966H260.397V111.766ZM260.397 108.639H254.997V105.926C254.997 105.594 255.005 105.264 255.021 104.936H260.431C260.409 105.263 260.397 105.593 260.397 105.926V108.639ZM260.59 103.609H255.135C255.288 102.332 255.567 101.093 255.957 99.9054H261.768C261.211 101.061 260.809 102.305 260.59 103.609V103.609ZM262.499 98.5779H256.449C256.991 97.2657 257.674 96.0246 258.478 94.8753H262.199C262.762 95.508 263.27 96.192 263.713 96.9201C263.269 97.4412 262.863 97.9956 262.499 98.5779V98.5779ZM260.843 93.5478H259.495C259.674 93.3336 259.859 93.1221 260.048 92.916C260.321 93.1167 260.587 93.3282 260.843 93.5478Z" fill="#B1C2E8"/>
<path d="M262.199 94.8753H258.478C258.798 94.4181 259.137 93.9753 259.495 93.5478H260.843C261.325 93.96 261.778 94.4028 262.199 94.8753Z" fill="#89A7DD"/>
<path d="M261.768 99.9054H255.957C256.105 99.4554 256.269 99.0135 256.449 98.5779H262.499C262.232 99.0063 261.988 99.4491 261.768 99.9054Z" fill="#89A7DD"/>
<path d="M260.431 104.936H255.021C255.045 104.49 255.083 104.046 255.135 103.609H260.59C260.516 104.045 260.463 104.487 260.431 104.936Z" fill="#89A7DD"/>
<path d="M254.997 109.966H260.397V108.639H254.997V109.966Z" fill="#89A7DD"/>
<path d="M274.46 154.748H227.819C225.656 154.748 223.902 152.995 223.902 150.831V115.875C223.902 113.712 225.656 111.959 227.819 111.959H274.46C276.623 111.959 278.377 113.712 278.377 115.875V150.831C278.377 152.995 276.623 154.748 274.46 154.748" fill="#1D2A30"/>
<path d="M264.61 154.748H227.819C225.727 154.748 224.019 153.109 223.908 151.045C223.904 150.974 223.902 150.903 223.902 150.831V115.875C223.902 113.712 225.656 111.959 227.819 111.959H264.61C266.773 111.959 268.527 113.712 268.527 115.875V150.831C268.527 152.995 266.773 154.748 264.61 154.748Z" fill="#45555C"/>
<path d="M248.949 128.012C248.949 125.062 247.154 122.671 244.939 122.671C242.723 122.671 240.927 125.062 240.927 128.012C240.927 130.256 241.968 132.173 243.439 132.964L242.698 144.121H247.18L246.437 132.964C247.91 132.173 248.949 130.256 248.949 128.012Z" fill="#1D2A30"/>
<path d="M271.128 109.966H265.728V104.126C265.728 96.453 259.485 90.2106 251.812 90.2106C244.139 90.2106 237.897 96.453 237.897 104.126V109.966H232.497V104.126C232.497 93.4758 241.161 84.8106 251.812 84.8106C262.462 84.8106 271.128 93.4758 271.128 104.126V109.966Z" fill="#1D2A30"/>
<path d="M271.128 109.966H271.125V104.127C271.125 93.4713 262.458 84.8133 251.811 84.8133C247.338 84.8133 243.207 86.3523 239.922 88.9263C242.721 86.9643 246.132 85.8213 249.813 85.8213C259.56 85.8213 267.462 93.7143 267.462 103.462V109.966H265.728V104.126C265.728 101.49 264.991 99.0234 263.713 96.9201C263.27 96.192 262.762 95.508 262.199 94.8753C261.552 94.1499 260.831 93.4929 260.048 92.916C257.74 91.2159 254.891 90.2106 251.812 90.2106C250.062 90.2106 248.388 90.5355 246.845 91.1268C241.618 93.1311 237.897 98.2026 237.897 104.126V109.966H232.497V104.126C232.497 93.4758 241.161 84.8106 251.812 84.8106C262.462 84.8106 271.128 93.4758 271.128 104.126V104.936V109.966" fill="#758288"/>
<path d="M267.462 109.968H271.125V109.966H267.462V109.968Z" fill="#D4E1F5"/>
<path d="M271.125 109.966H267.462V103.462C267.462 93.7143 259.56 85.8213 249.813 85.8213C246.132 85.8213 242.721 86.9643 239.922 88.9263C243.207 86.3523 247.338 84.8133 251.811 84.8133C262.458 84.8133 271.125 93.4713 271.125 104.127V109.966" fill="#929C9E"/>
<path d="M194.811 207.609H172.994V206.769H177.922C178.607 206.769 179.187 206.27 179.306 205.601L181.509 192.477L181.941 189.895H189.415L196.099 205.667C196.486 206.59 195.808 207.609 194.811 207.609Z" fill="#4870C0"/>
<path d="M194.811 207.609H172.994V207.608L181.996 207.607C182.568 207.607 183.089 207.39 183.481 207.032C183.508 207.009 183.534 206.985 183.559 206.96C183.62 206.899 183.676 206.835 183.729 206.769H194.842C195.199 206.769 195.437 206.397 195.295 206.077L190.327 194.73H191.464L196.099 205.667C196.175 205.847 196.21 206.032 196.21 206.211C196.21 206.95 195.614 207.609 194.811 207.609Z" fill="#8DAEE0"/>
<path d="M194.842 206.769H183.729C183.767 206.721 183.802 206.672 183.836 206.62C184.068 206.271 184.203 205.852 184.203 205.4C184.203 204.88 184.024 204.402 183.722 204.025C183.32 203.514 182.697 203.188 181.994 203.188H179.711L181.131 194.73H190.328L195.295 206.077C195.437 206.397 195.199 206.769 194.842 206.769Z" fill="#678ACF"/>
<path d="M206.544 194.73H162.905C162.469 194.73 162.183 194.377 162.265 193.94L168.464 161.151C168.547 160.716 168.967 160.362 169.403 160.362H213.042C213.477 160.362 213.764 160.716 213.682 161.151L207.482 193.94C207.4 194.377 206.98 194.73 206.544 194.73Z" fill="#4870C0"/>
<path d="M206.544 194.73H205.644C206.08 194.73 206.5 194.377 206.582 193.94L212.782 161.151C212.864 160.716 212.577 160.362 212.142 160.362H169.403H213.042C213.426 160.362 213.695 160.637 213.696 161.002C213.696 161.036 213.693 161.07 213.689 161.105C213.687 161.121 213.684 161.136 213.682 161.151L212.99 164.809L212.739 166.136L212.039 169.839L211.788 171.166L208.35 189.353L207.482 193.94C207.4 194.377 206.98 194.73 206.544 194.73" fill="#8DAEE0"/>
<path d="M205.644 194.73H162.005C161.569 194.73 161.283 194.377 161.365 193.94L167.564 161.151C167.647 160.716 168.067 160.362 168.503 160.362H212.142C212.577 160.362 212.864 160.716 212.782 161.151L206.582 193.94C206.5 194.377 206.08 194.73 205.644 194.73Z" fill="#1D2A30"/>
<path d="M205.065 192.719H163.344L169.082 162.374H210.803L205.065 192.719Z" fill="#4870C0"/>
<path d="M132.343 207.609V206.587L149.143 203.192H181.995C183.215 203.192 184.203 204.18 184.203 205.4C184.203 206.619 183.215 207.607 181.996 207.607L132.343 207.609Z" fill="#4870C0"/>
<path d="M132.343 207.607H132.341V206.59H132.343V207.607ZM143.304 204.372C143.304 204.371 143.303 204.371 143.303 204.37L149.144 203.188H179.711H178.844L178.823 203.192H149.143L143.304 204.372" fill="white"/>
<path d="M162.041 207.607H132.343V206.59L134.088 206.237L134.296 206.252C134.885 206.499 135.691 206.593 136.584 206.593C139.56 206.593 143.493 205.54 143.493 205.54C143.493 205.11 143.423 204.721 143.304 204.372L149.143 203.192H178.823L162.041 206.59V207.607" fill="#8DAEE0"/>
<path d="M183.481 207.032C183.57 206.951 183.653 206.863 183.728 206.769H183.729C183.677 206.835 183.62 206.899 183.56 206.96C183.534 206.985 183.508 207.009 183.481 207.032" fill="#D8E6F6"/>
<path d="M183.729 206.769H183.728C183.766 206.721 183.802 206.672 183.836 206.62C183.802 206.672 183.767 206.721 183.729 206.769Z" fill="#CDDAF1"/>
<path d="M179.711 203.192H178.823L178.844 203.188H179.711V203.192" fill="white"/>
<path d="M183.722 204.025C183.318 203.517 182.695 203.192 181.995 203.192H179.711V203.188H181.994C182.697 203.188 183.32 203.514 183.722 204.025" fill="#CDDAF1"/>
<path d="M181.994 207.607H162.041V206.59L178.823 203.192H179.711H181.995C182.695 203.192 183.318 203.517 183.722 204.025C184.021 204.403 184.198 204.881 184.198 205.402C184.198 205.848 184.065 206.27 183.836 206.62C183.802 206.671 183.766 206.721 183.728 206.769C183.653 206.863 183.57 206.951 183.481 207.032C183.085 207.386 182.567 207.607 181.994 207.607" fill="#BBD2EF"/>
<path d="M196.21 325.319H200.705L208.782 212.872H202.819L196.21 325.319Z" fill="#1D2A30"/>
<path d="M196.808 315.098L197.322 306.367H197.324L196.811 315.098H196.808V315.098ZM201.442 315.058L202.066 306.367H202.067L201.443 315.058H201.442ZM202.083 306.142H202.082L202.888 294.927H202.89L202.083 306.142V306.142ZM197.337 306.142H197.336L197.996 294.927H197.996L197.337 306.142ZM202.906 294.702H202.904L205.787 254.562H205.792L202.906 294.702V294.702ZM198.009 294.702L198.512 286.15L198.009 294.702ZM205.808 254.337H205.803L208.464 217.287H208.473L208.388 218.457L205.808 254.337" fill="white"/>
<path d="M202.89 294.927H202.888L202.904 294.702H202.906L202.89 294.927ZM197.996 294.927H197.996L198.009 294.702L197.996 294.927Z" fill="#F0F0F0"/>
<path d="M202.067 306.367H202.066L202.082 306.142H202.083L202.067 306.367ZM197.324 306.367H197.322L197.336 306.142H197.337L197.324 306.367" fill="#F0F0F0"/>
<path d="M205.792 254.562H205.787L205.803 254.337H205.808L205.792 254.562Z" fill="#F0F0F0"/>
<path d="M200.705 325.319H196.207L196.808 315.098H196.811L196.21 325.319H200.705L201.442 315.058H201.443L200.705 325.319" fill="#F9F9F9"/>
<path d="M208.473 217.287H208.464L208.562 215.942L208.58 215.688H208.59L208.473 217.287Z" fill="#D4D3D1"/>
<path d="M200.705 325.319H196.21L196.811 315.098L197.324 306.367L197.337 306.142L197.996 294.927L198.009 294.702L198.512 286.15L202.496 218.457L202.511 218.189H208.388L208.562 215.942L208.464 217.287L205.803 254.337L205.787 254.562L202.904 294.702L202.888 294.927L202.082 306.142L202.066 306.367L201.442 315.058L200.705 325.319" fill="#304047"/>
<path d="M202.505 218.189H202.495L202.552 217.287H202.558L202.505 218.189Z" fill="#CECDCC"/>
<path d="M202.558 217.287H202.552L202.652 215.688H202.653L202.558 217.287Z" fill="#A0A0A0"/>
<path d="M202.511 218.189H202.505L202.559 217.287L202.653 215.688H202.661L202.511 218.189" fill="#182124"/>
<path d="M208.562 215.942L208.58 215.688H208.58L208.562 215.942Z" fill="#A6A6A5"/>
<path d="M208.388 218.189H202.511L202.661 215.688H208.579L208.562 215.942L208.388 218.189" fill="#263136"/>
<path d="M163.22 325.319H167.716L168.449 212.872H162.486L163.22 325.319" fill="#1D2A30"/>
<path d="M167.715 325.319H163.217L163.214 324.935C163.216 324.934 163.217 324.933 163.218 324.933L163.22 325.319H167.715Z" fill="#F9F9F9"/>
<path d="M163.154 315.625L163.093 306.367H163.096L163.157 315.625H163.154ZM163.095 306.142H163.092L163.021 295.528C163.023 295.523 163.024 295.52 163.026 295.516L163.095 306.142" fill="white"/>
<path d="M163.096 306.367H163.093L163.092 306.142H163.095L163.096 306.367Z" fill="#F0F0F0"/>
<path d="M163.2 322.115C163.199 322.115 163.197 322.115 163.196 322.115L163.154 315.625H163.157L163.2 322.115Z" fill="#F9F9F9"/>
<path d="M168.003 281.304L168.019 278.874L168.003 281.304ZM168.277 239.4H168.277L168.329 231.397H168.33L168.277 239.4ZM162.64 236.453C162.638 236.452 162.637 236.451 162.635 236.45L162.602 231.397H162.607L162.64 236.453Z" fill="white"/>
<path d="M167.715 325.319H163.22L163.218 324.933C164.73 324.158 164.333 322.24 163.339 322.131C163.293 322.126 163.247 322.121 163.2 322.115L163.157 315.625L163.096 306.367L163.095 306.142L163.026 295.516C164.621 290.588 166.397 284.812 168.019 278.874L168.003 281.304L167.715 325.319V325.319ZM168.277 239.4C166.713 238.411 164.806 237.42 162.64 236.453L162.607 231.397H168.329L168.277 239.4Z" fill="#304047"/>
<path d="M168.331 231.397H168.33L168.331 231.195L168.431 215.688L168.331 231.397ZM162.602 231.397H162.6L162.499 215.688H162.5L162.6 231.195L162.602 231.397Z" fill="#CECDCC"/>
<path d="M168.33 231.397H168.329L168.431 215.688L168.332 231.195L168.33 231.397V231.397ZM162.607 231.397H162.602L162.6 231.195L162.5 215.688H162.504L162.607 231.397" fill="#CECDCB"/>
<path d="M168.329 231.397H162.607L162.504 215.688H168.431L168.329 231.397" fill="#263136"/>
<path d="M115.495 325.319H119.991L128.067 212.872H122.103L115.495 325.319Z" fill="#1D2A30"/>
<path d="M115.97 317.2L116.329 311.108L116.331 311.098L115.972 317.2H115.97V317.2ZM120.588 316.991L121.164 308.977L121.165 308.973L120.589 316.991H120.588Z" fill="white"/>
<path d="M119.991 325.319H115.492L115.97 317.2H115.972L115.495 325.319H119.991L120.588 316.991H120.589L119.991 325.319" fill="#F9F9F9"/>
<path d="M127.05 227.112C127.049 227.112 127.047 227.112 127.044 227.111L127.445 221.54H127.452L127.05 227.112ZM127.754 217.352H127.745L127.85 215.903L127.866 215.688H127.877L127.754 217.352" fill="white"/>
<path d="M119.991 325.319H115.495L115.972 317.2L116.331 311.098L116.52 310.222L120.647 310.497L121.164 308.977L120.588 316.991L119.991 325.319V325.319ZM127.044 227.111C125.546 226.935 124.076 226.793 122.647 226.688L123.287 221.54H127.445L127.044 227.111ZM127.745 217.352H127.738L127.85 215.903L127.745 217.352Z" fill="#304047"/>
<path d="M127.85 215.903L127.865 215.688H127.866L127.85 215.903Z" fill="#CECDCB"/>
<path d="M127.738 217.352H123.807C123.869 216.856 123.941 216.3 124.025 215.688H127.865L127.85 215.903L127.738 217.352Z" fill="#263136"/>
<path d="M247.633 325.319H252.129L245.521 212.872H239.557L247.633 325.319" fill="#1D2A30"/>
<path d="M244.447 280.949L242.55 254.562H242.552L244.447 280.949V280.949ZM242.536 254.337H242.534L239.954 218.457L239.869 217.287H239.874L242.536 254.337" fill="white"/>
<path d="M242.552 254.562H242.55L242.534 254.337H242.536L242.552 254.562Z" fill="#F0F0F0"/>
<path d="M239.874 217.287H239.869L239.751 215.688H239.759L239.874 217.287" fill="#D4D3D1"/>
<path d="M252.128 325.319H247.637L244.447 280.949L242.552 254.562L242.536 254.337L239.874 217.287L239.759 215.688H239.761L239.954 218.189H245.83L245.847 218.457L252.128 325.319" fill="#304047"/>
<path d="M245.847 218.189H245.833L245.78 217.287H245.79L245.847 218.189Z" fill="#CECDCC"/>
<path d="M245.79 217.287H245.78L245.687 215.688H245.689L245.79 217.287Z" fill="#A0A0A0"/>
<path d="M245.833 218.189H245.83L245.681 215.688H245.687L245.78 217.287L245.833 218.189Z" fill="#182124"/>
<path d="M245.831 218.189H239.954L239.761 215.688H245.681L245.831 218.189Z" fill="#263136"/>
<path d="M119.322 215.688H248.302C249.376 215.688 250.248 214.816 250.248 213.742V210.055H117.376V213.742C117.376 214.816 118.247 215.688 119.322 215.688Z" fill="#4870C0"/>
<path d="M248.302 215.688H124.025C124.139 214.852 124.276 213.912 124.439 212.872H250.248V213.742C250.248 213.862 250.237 213.981 250.215 214.096C250.049 215.002 249.256 215.688 248.302 215.688" fill="#8DAEE0"/>
<path d="M250.248 212.872H124.439C124.54 212.216 124.653 211.522 124.776 210.79H250.248V212.872Z" fill="#678ACF"/>
<path d="M114.59 210.79H253.034C253.91 210.79 254.621 210.079 254.621 209.203C254.621 208.328 253.91 207.617 253.034 207.617H114.59C113.714 207.617 113.004 208.328 113.004 209.203C113.004 210.079 113.714 210.79 114.59 210.79Z" fill="#4870C0"/>
<path d="M253.034 210.79H124.776C124.943 209.8 125.13 208.741 125.339 207.617H253.034C253.91 207.617 254.621 208.328 254.621 209.203C254.621 210.079 253.91 210.79 253.034 210.79" fill="#8DAEE0"/>
<path d="M194.805 179.373H171.4C170.997 179.373 170.62 179.195 170.365 178.885C170.108 178.574 170.005 178.169 170.083 177.774L170.644 174.901C170.801 174.096 171.509 173.512 172.328 173.512H195.734C196.136 173.512 196.513 173.69 196.769 174.001C197.025 174.311 197.127 174.715 197.05 175.111L196.489 177.985C196.332 178.789 195.624 179.373 194.805 179.373" fill="#799BD7"/>
<path d="M194.805 178.923H171.4C170.839 178.923 170.418 178.411 170.525 177.861L171.085 174.986C171.202 174.392 171.723 173.963 172.328 173.963H195.734C196.295 173.963 196.716 174.475 196.609 175.025L196.048 177.899C195.932 178.493 195.411 178.923 194.805 178.923Z" fill="white"/>
<path d="M175.652 176.442C175.505 177.193 174.836 177.802 174.156 177.802C173.476 177.802 173.044 177.193 173.191 176.442C173.337 175.692 174.007 175.083 174.686 175.083C175.367 175.083 175.799 175.692 175.652 176.442Z" fill="#1D2A30"/>
<path d="M179.31 176.442C179.164 177.193 178.494 177.802 177.814 177.802C177.134 177.802 176.702 177.193 176.849 176.442C176.996 175.692 177.665 175.083 178.345 175.083C179.024 175.083 179.456 175.692 179.31 176.442Z" fill="#1D2A30"/>
<path d="M182.968 176.442C182.821 177.193 182.152 177.802 181.472 177.802C180.792 177.802 180.36 177.193 180.507 176.442C180.653 175.692 181.323 175.083 182.003 175.083C182.682 175.083 183.115 175.692 182.968 176.442" fill="#1D2A30"/>
<path d="M186.627 176.442C186.48 177.193 185.81 177.802 185.13 177.802C184.45 177.802 184.019 177.193 184.165 176.442C184.312 175.692 184.981 175.083 185.661 175.083C186.34 175.083 186.772 175.692 186.627 176.442Z" fill="#1D2A30"/>
<path d="M190.284 176.442C190.138 177.193 189.468 177.802 188.788 177.802C188.109 177.802 187.676 177.193 187.823 176.442C187.969 175.692 188.639 175.083 189.319 175.083C189.999 175.083 190.431 175.692 190.284 176.442Z" fill="#1D2A30"/>
<path d="M193.943 176.442C193.796 177.193 193.126 177.802 192.447 177.802C191.767 177.802 191.335 177.193 191.481 176.442C191.627 175.692 192.298 175.083 192.977 175.083C193.657 175.083 194.089 175.692 193.943 176.442Z" fill="#1D2A30"/>
<path d="M201.637 179.373H198.074C197.758 179.373 197.467 179.24 197.277 179.008C197.084 178.773 197.01 178.456 197.074 178.136L197.782 174.573C197.9 173.978 198.462 173.512 199.061 173.512H202.624C202.941 173.512 203.232 173.645 203.421 173.877C203.614 174.112 203.688 174.43 203.624 174.749L202.916 178.312C202.798 178.907 202.236 179.373 201.637 179.373Z" fill="#799BD7"/>
<path d="M198.075 178.923H201.638C202.023 178.923 202.398 178.61 202.475 178.224L203.183 174.661C203.261 174.275 203.009 173.963 202.624 173.963H199.061C198.675 173.963 198.3 174.275 198.224 174.661L197.515 178.224C197.438 178.61 197.689 178.923 198.075 178.923" fill="#1D2A30"/>
<path d="M199.903 178.017L199.757 177.952C199.687 177.864 199.714 177.721 199.82 177.634L201.247 176.442L200.294 175.252C200.223 175.164 200.252 175.021 200.357 174.934C200.462 174.846 200.605 174.846 200.675 174.934L201.757 176.284C201.827 176.371 201.798 176.514 201.693 176.602L200.074 177.952L199.903 178.017Z" fill="#4870C0"/>
<path d="M201.521 176.667H199.088C198.964 176.667 198.883 176.566 198.907 176.442C198.932 176.319 199.053 176.217 199.177 176.217H201.61C201.734 176.217 201.815 176.319 201.79 176.442C201.766 176.566 201.645 176.667 201.521 176.667Z" fill="#4870C0"/>
<path d="M122.643 121.717H142.043C144.093 121.717 145.754 120.055 145.754 118.006V98.6058C145.754 96.5565 144.093 94.8951 142.043 94.8951H122.643C120.594 94.8951 118.932 96.5565 118.932 98.6058V118.006C118.932 120.055 120.594 121.717 122.643 121.717Z" fill="#4870C0"/>
<path d="M130.245 120.715L132.343 129.735L134.44 120.715H130.245Z" fill="#4870C0"/>
<path d="M132.343 116.495L132.108 116.352C124.206 111.524 124.351 103.344 124.354 103.262L124.363 102.974L132.343 99.576L140.324 102.974L140.333 103.262C140.334 103.344 140.479 111.524 132.578 116.352L132.343 116.495ZM132.343 100.065L124.804 103.276C124.804 103.276 124.573 111.221 132.343 115.969C140.114 111.221 139.883 103.276 139.883 103.276L132.343 100.065Z" fill="#799BD7"/>
<path d="M132.343 115.969V100.065L139.882 103.276C139.882 103.276 140.114 111.221 132.343 115.969Z" fill="#CCDCF3"/>
<path d="M132.343 115.969C124.573 111.221 124.804 103.276 124.804 103.276L132.343 100.065V115.969Z" fill="#B0C8EB"/>
<path d="M125.098 201.742L131.388 202.685C131.388 202.685 133.524 201.979 135.779 201.742C138.035 201.505 140.645 201.742 140.645 201.742C140.645 201.742 143.493 202.811 143.493 205.54C143.493 205.54 136.848 207.32 134.296 206.252L125.098 205.54V201.742Z" fill="#F47272"/>
<path d="M136.584 206.593C135.691 206.593 134.885 206.499 134.296 206.252L125.728 205.589C125.758 205.435 125.788 205.28 125.82 205.124C126.021 204.108 126.238 203.049 126.475 201.948L131.388 202.685C131.388 202.685 133.524 201.979 135.779 201.742C136.531 201.663 137.322 201.637 138.043 201.637C139.485 201.637 140.645 201.742 140.645 201.742C140.645 201.742 143.493 202.81 143.493 205.54C143.493 205.54 139.56 206.593 136.584 206.593" fill="#CD5A58"/>
<path d="M140.709 159.195C140.709 159.195 140.87 161.458 141.464 163.008C141.464 163.008 140.44 163.696 139.262 162.984L140.709 159.195Z" fill="#C53434"/>
<path d="M143.158 157.403C142.917 157.985 142.485 158.36 142.195 158.238C141.903 158.117 141.862 157.548 142.105 156.965C142.346 156.383 142.778 156.009 143.068 156.129C143.36 156.25 143.4 156.821 143.158 157.403Z" fill="#1D2A30"/>
<path d="M144.812 154.78C144.786 154.768 143.769 154.139 142.484 154.135C142.005 154.135 141.485 154.227 140.982 154.483C140.822 154.565 140.758 154.761 140.84 154.921C140.922 155.083 141.118 155.146 141.279 155.065C141.676 154.862 142.087 154.787 142.484 154.787C143.015 154.786 143.52 154.924 143.888 155.065C144.072 155.135 144.221 155.205 144.323 155.256L144.439 155.317L144.473 155.337C144.627 155.431 144.828 155.382 144.922 155.228C145.015 155.074 144.966 154.874 144.812 154.78" fill="#1D2A30"/>
<path d="M138.947 164.093C138.745 164.346 138.536 164.589 138.317 164.812C137.006 166.17 135.359 167.03 133.643 167.378C133.192 167.473 132.735 167.531 132.278 167.556C129.863 167.678 127.452 166.815 125.763 164.951C125.069 164.198 124.489 163.263 124.088 162.162C122.485 157.843 124.12 154.436 126.424 148.456C126.9 147.16 127.668 145.992 128.678 145.058C132.211 141.749 137.759 141.94 141.06 145.471C145.724 150.389 142.585 159.416 138.947 164.093Z" fill="#F47272"/>
<path d="M131.828 167.567C129.567 167.567 127.347 166.7 125.763 164.951C126.683 164.01 127.7 163.443 127.7 163.443C127.7 163.443 131.426 164.481 133.643 167.378C133.192 167.473 132.735 167.531 132.277 167.556C132.128 167.564 131.978 167.567 131.828 167.567" fill="#CD5A58"/>
<path d="M114.241 167.603C114.831 171.82 124.045 173.394 124.045 173.394C124.045 173.394 128.593 175.464 128.778 173.66C126.897 171.482 126.689 169.584 127.338 167.919C127.717 166.95 128.389 166.064 129.191 165.243C129.607 164.808 130.067 164.399 130.533 164.004L127.723 152.465C125.698 156.85 118.777 166.979 114.241 167.603Z" fill="#F47272"/>
<path d="M140.538 142.206C140.538 142.206 142.505 141.961 144.015 145.633C145.287 148.726 142.294 149.394 142.423 152.683C142.552 155.973 139.55 157.795 139.55 157.795C139.55 157.795 137.023 159.973 134.876 158.791C134.876 158.791 132.066 160.169 131.326 162.574C130.587 164.979 126.24 160.636 122.324 161.294C122.324 161.294 119.675 158.817 119.871 152.805C120 148.837 121.757 145.265 121.757 145.265C121.757 145.265 122.9 141.684 127.378 139.684C131.855 137.684 139.694 139.205 140.538 142.206" fill="#1D2A30"/>
<path d="M134.337 157.02C134.112 158.446 134.388 159.693 135.105 160.488C136.066 161.528 137.601 160.208 138.223 158.378C138.762 156.751 138.946 154.201 137.545 153.915C136.144 153.629 134.632 155.265 134.337 157.02Z" fill="#F47272"/>
<path d="M135.324 171.086C134.037 174.668 132.885 178.124 131.868 181.436C131.22 183.488 130.626 185.495 130.077 187.43C129.618 189.059 129.195 190.634 128.799 192.164C128.61 192.902 128.421 193.631 128.241 194.351C127.251 198.32 126.45 201.938 125.82 205.124C123.93 214.61 123.489 220.307 123.489 220.307L88.1642 215.888C89.3883 209.822 90.342 204.521 91.674 198.806C92.412 195.674 93.249 192.416 94.329 188.843C95.085 186.278 95.967 183.551 97.011 180.59C100.557 170.42 103.824 167.603 103.824 167.603C117.414 165.425 135.324 171.086 135.324 171.086" fill="#1D2A30"/>
<path d="M147.07 202.397L153.36 203.341C153.36 203.341 155.497 202.635 157.751 202.397C160.007 202.161 162.617 202.397 162.617 202.397C162.617 202.397 165.466 203.467 165.466 206.195C165.466 206.195 158.819 207.977 156.268 206.908L147.07 206.195V202.397Z" fill="#F47272"/>
<path d="M108.077 318.743L114.655 318.862L117.931 303.691L111.361 303.58L108.077 318.743" fill="#F9A95E"/>
<path d="M109.551 311.935L109.544 311.934L110.011 309.79L110.015 309.791L109.551 311.935" fill="#CECDCC"/>
<path d="M116.056 312.37L109.551 311.935L110.015 309.791L116.52 310.222L116.056 312.37" fill="#CA8849"/>
<path d="M129.214 281.608C124.877 298.095 119.633 309.902 119.633 309.902L107.628 308.986C107.628 308.986 112.554 289.75 114.338 272.133C115.443 261.258 115.345 252.257 112.162 251.562C110.157 251.12 105.468 251.137 99.4626 251.275V228.889C116.319 232.35 133.092 238.879 134.369 244.116C136.152 251.488 133.035 267.092 129.214 281.608" fill="#4870C0"/>
<path d="M106.355 309.548L120.647 310.497L122.75 304.319L107.005 303.583L106.355 309.548" fill="#4870C0"/>
<path d="M120.647 310.497L116.52 310.222L110.015 309.791L106.355 309.548L107.005 303.583L122.75 304.319L122.129 306.142L122.053 306.367L120.647 310.497" fill="#658ACF"/>
<path d="M116.442 318.479C117.235 318.042 118.36 317.562 118.779 317.756C118.867 317.797 118.928 317.883 118.938 317.98C118.987 318.173 118.933 318.376 118.795 318.518C118.465 318.801 117.601 318.784 116.442 318.479ZM116.347 318.153L116.212 318.228C116.238 317.605 116.356 316.567 116.768 316.218C116.858 316.133 116.98 316.09 117.103 316.099L117.177 316.11C117.394 316.148 117.445 316.259 117.453 316.349C117.49 316.794 116.906 317.671 116.347 318.153ZM115.642 318.533L115.78 318.55L115.945 318.613L115.973 318.658L116.029 318.654C116.586 318.828 117.159 318.943 117.742 318.993C118.174 319.071 118.621 318.983 118.993 318.748C119.228 318.537 119.32 318.209 119.231 317.905C119.209 317.707 119.081 317.535 118.901 317.449C118.48 317.255 117.722 317.498 117.079 317.784C117.485 317.281 117.785 316.688 117.727 316.281C117.686 316.014 117.437 315.81 117.168 315.785C116.932 315.741 116.624 315.804 116.437 315.956C115.753 316.547 115.642 318.407 115.642 318.521V318.526V318.527V318.533Z" fill="#4870C0"/>
<path d="M115.483 317.732L108.12 317.271C107.864 317.245 107.634 317.43 107.607 317.686L107.606 317.694L106.883 323.503C106.843 324.138 107.322 324.687 107.957 324.733C110.529 324.852 111.763 324.781 115.005 324.957C116.994 325.077 120.914 325.499 123.659 325.234C126.404 324.968 126.067 322.261 124.882 322.131C122.071 321.812 118.349 319.746 116.59 318.18C116.281 317.911 115.892 317.754 115.483 317.732" fill="#1D2A30"/>
<path d="M129.214 281.608C124.73 278.769 119.485 275.431 114.338 272.133C114.734 268.235 114.976 264.579 114.976 261.458C114.976 260.493 114.953 259.579 114.904 258.725H134.111C133.115 265.704 131.266 273.813 129.214 281.608" fill="#395EB4"/>
<path d="M146.534 318.743L153.112 318.862L156.389 303.691L149.818 303.58L146.534 318.743" fill="#F9A95E"/>
<path d="M148.009 311.935L148.001 311.934L148.468 309.79L148.473 309.791L148.009 311.935" fill="#CECDCC"/>
<path d="M154.513 312.37L148.009 311.935L148.473 309.791L154.977 310.222L154.513 312.37" fill="#CA8849"/>
<path d="M122.647 226.688L123.705 218.189L89.3493 212.534C89.3493 212.534 78.114 234.795 83.6131 245.705C87.0068 252.438 112.419 251.943 131.205 251.448C140.343 251.208 147.914 250.967 150.619 251.558C158.969 253.384 146.086 308.983 146.086 308.983L158.089 309.9C158.089 309.9 176.637 259.86 172.823 244.12C171.159 237.252 142.854 228.158 122.647 226.688" fill="#4870C0"/>
<path d="M144.812 309.548L159.105 310.497L161.208 304.319L145.462 303.583L144.812 309.548" fill="#4870C0"/>
<path d="M159.105 310.497L154.977 310.222L148.473 309.791L144.812 309.548L145.462 303.583L161.208 304.319L160.587 306.142L160.511 306.367L159.105 310.497" fill="#658ACF"/>
<path d="M154.9 318.479C155.693 318.042 156.818 317.562 157.236 317.756C157.325 317.797 157.386 317.883 157.395 317.98C157.445 318.173 157.39 318.376 157.252 318.518C156.922 318.801 156.059 318.784 154.9 318.479ZM154.805 318.153L154.67 318.228C154.696 317.605 154.813 316.567 155.226 316.218C155.316 316.133 155.437 316.09 155.561 316.099L155.635 316.11C155.851 316.148 155.903 316.259 155.91 316.349C155.948 316.794 155.363 317.671 154.805 318.153ZM154.1 318.533L154.238 318.55L154.403 318.613L154.43 318.658L154.486 318.654C155.044 318.828 155.617 318.943 156.199 318.993C156.632 319.071 157.078 318.983 157.45 318.748C157.686 318.537 157.778 318.209 157.688 317.905C157.666 317.707 157.538 317.535 157.359 317.449C156.937 317.255 156.179 317.498 155.537 317.784C155.942 317.281 156.243 316.688 156.184 316.281C156.144 316.014 155.894 315.81 155.625 315.785C155.389 315.741 155.082 315.804 154.895 315.956C154.21 316.547 154.1 318.407 154.1 318.521V318.526V318.527V318.533Z" fill="#4870C0"/>
<path d="M153.941 317.732L146.578 317.271C146.322 317.245 146.092 317.43 146.064 317.686L146.063 317.694L145.34 323.503C145.301 324.138 145.779 324.687 146.414 324.733C148.986 324.852 150.22 324.781 153.463 324.957C155.452 325.077 159.371 325.499 162.116 325.234C164.861 324.968 164.525 322.261 163.339 322.131C160.529 321.812 156.806 319.746 155.047 318.18C154.739 317.911 154.349 317.754 153.941 317.732" fill="#1D2A30"/>
<path d="M88.089 216.402L104.008 218.489L104.522 216.142L88.5762 213.823L88.089 216.402" fill="#100F0D"/>
<path d="M105.847 216.156L105.655 218.489L120.366 220.512V218.207L105.847 216.156" fill="#100F0D"/>
<path d="M121.279 218.334V220.512L123.413 220.798V218.692L121.279 218.334Z" fill="#100F0D"/>
<path d="M128.799 192.164C127.692 186.134 129.699 178.934 129.699 178.934L131.868 181.436C131.22 183.488 130.626 185.495 130.077 187.43C129.618 189.059 129.195 190.634 128.799 192.164" fill="#182124"/>
<path d="M135.321 171.081C138.194 171.663 139.144 193.975 139.262 196.349C139.381 198.722 153.36 203.341 153.36 203.341V206.593C153.36 206.593 138.38 205.545 134.885 204.115C131.388 202.685 130.533 181.988 130.533 181.988L135.321 171.081" fill="#F47272"/>
<path d="M135.321 171.081C137.957 171.901 139.262 186.617 139.262 186.617L131.111 189.901L129.088 181.717C129.088 181.717 128.509 180.056 129.65 176.544C131.297 171.47 135.321 171.081 135.321 171.081" fill="#1D2A30"/>
<path d="M146.644 255.339H67.3809V251.532C67.3809 247.599 70.5692 244.411 74.5017 244.411H139.523C143.456 244.411 146.644 247.599 146.644 251.532V255.339Z" fill="#4870C0"/>
<path d="M95.6466 217.352H139.287C141.531 217.352 143.193 219.441 142.687 221.627L134.885 255.341H133.082L139.73 225.795C140.22 223.613 138.561 221.54 136.326 221.54H96.5376L95.6466 217.352Z" fill="#1D2A30"/>
<path d="M112.163 256.52V285.005C112.163 285.923 111.416 286.661 110.507 286.661H103.523C102.605 286.661 101.867 285.923 101.867 285.005V256.52H112.163Z" fill="#1D2A30"/>
<path d="M73.6126 322.293C73.6126 320.622 72.2573 319.267 70.5864 319.267C68.9147 319.267 67.5598 320.622 67.5598 322.293C67.5598 323.964 68.9147 325.319 70.5864 325.319C72.2573 325.319 73.6126 323.964 73.6126 322.293Z" fill="#1D2A30"/>
<path d="M70.5864 323.807C69.7504 323.807 69.0729 323.129 69.0729 322.293C69.0729 321.456 69.7504 320.779 70.5864 320.779C71.422 320.779 72.0995 321.456 72.0995 322.293C72.0995 323.129 71.422 323.807 70.5864 323.807Z" fill="#45555C"/>
<path d="M146.465 322.293C146.465 320.622 145.11 319.267 143.438 319.267C141.768 319.267 140.413 320.622 140.413 322.293C140.413 323.964 141.768 325.319 143.438 325.319C145.11 325.319 146.465 323.964 146.465 322.293Z" fill="#1D2A30"/>
<path d="M143.438 323.807C142.603 323.807 141.926 323.129 141.926 322.293C141.926 321.456 142.603 320.779 143.438 320.779C144.275 320.779 144.952 321.456 144.952 322.293C144.952 323.129 144.275 323.807 143.438 323.807Z" fill="#45555C"/>
<path d="M109.516 309.013V276.455H104.509V309.013C85.0107 309.514 73.1623 316.33 70.7909 317.824C70.5143 317.999 70.3494 318.303 70.3494 318.631V321.336C70.3494 321.864 70.778 322.293 71.3067 322.293C71.6502 322.293 71.9677 322.108 72.1378 321.809L73.2948 319.781C73.2948 319.781 86.7062 314.999 104.509 314.613V319.963C104.509 320.648 105.063 321.202 105.747 321.202H108.278C108.962 321.202 109.516 320.648 109.516 319.963V314.613C127.318 314.999 140.73 319.781 140.73 319.781L141.887 321.809C142.057 322.108 142.375 322.293 142.718 322.293C143.248 322.293 143.676 321.864 143.676 321.336V318.631C143.676 318.303 143.511 317.999 143.234 317.824C140.863 316.33 129.015 309.514 109.516 309.013" fill="#1D2A30"/>
<path d="M108.655 325.319H105.37V319.267H108.655V325.319Z" fill="#1D2A30"/>
<path d="M112.163 268.355H101.867V258.725H111.173H112.163V268.355Z" fill="#182124"/>
<path d="M148.811 253.586V256.989C148.811 257.951 148.028 258.725 147.065 258.725H66.9558C65.9932 258.725 65.219 257.951 65.219 256.989V253.586C65.219 252.633 65.9932 251.85 66.9558 251.85H147.065C148.028 251.85 148.811 252.633 148.811 253.586" fill="#1D2A30"/>
<path d="M111.955 255.341H65.219C65.219 255.341 50.369 230.645 50.369 189.839V174.854C50.369 168.698 55.364 163.703 61.529 163.703H81.3469C87.3861 163.703 92.3274 168.5 92.4984 174.539C93.0744 195.563 96.1695 241.094 111.955 255.341" fill="#1D2A30"/>
<path d="M101.675 255.341H67.3316C66.0041 255.341 64.786 254.609 64.1753 253.43C62.8587 250.891 60.4737 245.871 58.0518 238.667C59.3764 238.569 60.7486 238.526 62.1384 238.526C72.8814 238.526 84.7339 241.112 84.7339 241.112L85.2736 237.52C85.2093 237.506 85.1478 237.494 85.0838 237.48C85.0919 237.48 85.1 237.48 85.1081 237.48C85.6599 237.48 86.1357 237.056 86.182 236.488L89.7722 192.484C89.7722 192.484 89.0561 213.971 89.0557 230.095C89.0557 238.163 89.2347 244.888 89.7722 246.906C89.7979 247.002 89.8429 247.093 89.9044 247.179V250.467L96.7356 250.818V247.411C96.8706 247.263 96.9471 247.095 96.9498 246.906C97.0263 241.653 97.0875 236.714 97.1361 232.085C99.0846 238.898 101.538 245.037 104.629 249.787C106.185 252.179 104.53 255.341 101.675 255.341Z" fill="#45555C"/>
<path d="M147.074 258.725H134.111H147.065C147.968 258.725 148.712 258.044 148.802 257.166C148.713 258.042 147.973 258.725 147.074 258.725Z" fill="#CECDCC"/>
<path d="M148.802 257.166C148.802 257.163 148.802 257.16 148.803 257.156C148.802 257.16 148.802 257.163 148.802 257.166ZM148.803 257.155C148.803 257.153 148.804 257.15 148.804 257.147C148.804 257.15 148.803 257.153 148.803 257.155ZM148.804 257.144C148.804 257.142 148.805 257.139 148.805 257.137C148.805 257.139 148.804 257.142 148.804 257.144ZM148.805 257.134C148.805 257.131 148.805 257.129 148.806 257.127C148.805 257.129 148.805 257.131 148.805 257.134ZM148.806 257.122C148.806 257.121 148.806 257.119 148.806 257.117C148.806 257.119 148.806 257.121 148.806 257.122ZM148.807 257.111C148.807 257.11 148.807 257.108 148.807 257.108C148.807 257.109 148.807 257.11 148.807 257.111ZM148.808 257.1C148.808 257.098 148.808 257.097 148.808 257.095C148.808 257.097 148.808 257.098 148.808 257.1ZM148.809 257.089C148.809 257.088 148.809 257.086 148.809 257.084C148.809 257.086 148.809 257.088 148.809 257.089ZM148.809 257.078C148.809 257.076 148.809 257.075 148.809 257.074C148.809 257.075 148.809 257.076 148.809 257.078ZM148.81 257.067C148.81 257.066 148.81 257.065 148.81 257.065C148.81 257.065 148.81 257.066 148.81 257.067ZM148.81 257.055V257.054V257.055ZM148.811 257.045C148.811 257.044 148.811 257.044 148.811 257.044C148.811 257.044 148.811 257.044 148.811 257.045ZM148.811 257.01C148.811 257.003 148.811 256.996 148.811 256.989V254.562V256.989C148.811 256.996 148.811 257.003 148.811 257.01Z" fill="#CECDCC"/>
<path d="M147.065 258.725H111.172C109.876 258.725 108.823 257.673 108.823 256.377V255.341H111.955C111.067 254.54 110.218 253.637 109.408 252.647C109.839 252.158 110.47 251.85 111.172 251.85H147.065C148.028 251.85 148.811 252.633 148.811 253.586V254.337V254.562V256.989C148.811 256.996 148.811 257.003 148.811 257.01C148.81 257.022 148.81 257.033 148.81 257.043C148.81 257.043 148.81 257.043 148.81 257.045C148.81 257.047 148.81 257.051 148.81 257.054V257.055C148.81 257.059 148.81 257.061 148.81 257.065C148.81 257.065 148.81 257.066 148.81 257.067C148.81 257.069 148.81 257.072 148.809 257.074C148.809 257.075 148.809 257.076 148.809 257.078C148.809 257.08 148.809 257.082 148.809 257.084C148.809 257.086 148.809 257.088 148.809 257.088C148.808 257.091 148.808 257.093 148.808 257.095C148.808 257.097 148.808 257.098 148.808 257.1C148.808 257.102 148.807 257.105 148.807 257.107C148.807 257.108 148.807 257.11 148.807 257.111C148.807 257.113 148.807 257.116 148.806 257.117C148.806 257.119 148.806 257.121 148.806 257.122C148.806 257.124 148.806 257.125 148.806 257.127C148.805 257.129 148.805 257.131 148.805 257.133C148.805 257.135 148.805 257.135 148.805 257.137C148.805 257.139 148.804 257.142 148.804 257.144C148.804 257.145 148.804 257.146 148.804 257.147C148.804 257.15 148.803 257.152 148.803 257.155V257.156C148.802 257.16 148.802 257.163 148.802 257.166C148.712 258.044 147.968 258.725 147.065 258.725" fill="#182124"/>
<path d="M111.955 255.341H108.823V254.198C108.823 253.604 109.045 253.061 109.408 252.647C110.218 253.637 111.067 254.54 111.955 255.341Z" fill="#182124"/>
<path d="M65.2057 162.379L68.1726 158.489C68.1726 158.489 80.8601 159.066 81.1628 163.703C81.4651 168.34 65.2057 162.379 65.2057 162.379Z" fill="#4870C0"/>
<path d="M56.8705 174.013C56.8705 174.013 57.6446 194.619 56.8705 247.819C56.8444 249.613 50.1553 249.553 49.6933 247.819C48.0804 241.765 49.6933 193.396 49.6933 193.396L56.8705 174.013" fill="#4870C0"/>
<path d="M49.8248 248.086L56.6564 248.318V251.73L49.8248 251.379V248.086" fill="#4870C0"/>
<path d="M56.6565 248.323V248.318L49.8248 248.086V248.09C49.7634 248.005 49.7191 247.915 49.6933 247.819C49.397 246.706 49.2096 244.167 49.101 240.761C51.1882 239.678 53.9392 239.059 56.9914 238.758C56.9563 241.668 56.9162 244.685 56.8706 247.819C56.8677 248.008 56.7915 248.175 56.6565 248.323Z" fill="#658ACF"/>
<path d="M53.4902 249.141C51.9342 249.141 50.3233 248.786 49.8248 248.09V248.086L56.6564 248.318V248.323C56.1547 248.873 54.843 249.141 53.4902 249.141Z" fill="#658ACF"/>
<path d="M46.4509 236.937C46.0843 227.132 44.7388 182.047 50.3691 167.102C50.3691 167.102 55.6728 160.369 73.6126 160.369C91.5525 160.369 96.9498 173.101 96.9498 173.101C96.9498 173.101 97.7247 193.706 96.9498 246.906C96.9237 248.701 90.2349 248.64 89.7722 246.906C88.16 240.854 89.7722 192.484 89.7722 192.484L86.182 236.488C86.1311 237.112 85.5616 237.564 84.9421 237.468C79.2841 236.596 54.3193 233.068 47.7461 237.568C47.2057 237.938 46.4752 237.592 46.4509 236.937" fill="#4870C0"/>
<path d="M89.9044 247.173L96.7356 247.407V250.818L89.9044 250.467V247.173" fill="#4870C0"/>
<path d="M85.2736 237.52L84.7339 241.112C84.7339 241.112 56.8976 235.039 47.8779 241.506L47.3442 237.52C47.3442 237.52 54.3091 231.099 85.2736 237.52" fill="#4870C0"/>
<path d="M96.7356 247.411V247.407L89.9044 247.173V247.179C89.8428 247.093 89.7979 247.002 89.7722 246.906C89.2346 244.888 89.0557 238.163 89.0557 230.095C89.0561 213.971 89.7722 192.484 89.7722 192.484C89.7722 192.484 90.1683 178.513 96.9498 173.102C96.9498 173.102 88.4672 176.751 89.7722 192.484L86.182 236.488C86.1357 237.056 85.6599 237.48 85.108 237.48C85.0999 237.48 85.0918 237.48 85.0837 237.48C74.8582 235.371 67.2623 234.666 61.6778 234.666C50.4411 234.666 47.3442 237.52 47.3442 237.52L47.3699 237.713C47.3354 237.718 47.3007 237.72 47.2666 237.72C46.8513 237.72 46.4684 237.408 46.4509 236.937C46.3152 233.303 46.0448 224.824 46.0448 214.828C46.0452 197.854 46.8256 176.508 50.369 167.102C50.369 167.102 55.6727 160.369 73.6126 160.369C91.5525 160.369 96.9498 173.102 96.9498 173.102C96.9507 173.115 97.2945 182.284 97.2945 204.16C97.2936 215.089 97.2081 229.19 96.9498 246.906C96.9471 247.095 96.8706 247.263 96.7356 247.411V247.411ZM69.3594 161.979C56.3044 165.943 59.8651 227.799 59.8651 227.799C61.1701 166.441 69.3594 161.979 69.3594 161.979" fill="#8DAEE0"/>
<path d="M93.5694 248.23C92.0142 248.23 90.4032 247.874 89.9044 247.179V247.173L96.7356 247.407V247.411C96.2343 247.961 94.923 248.23 93.5694 248.23" fill="#8DAEE0"/>
<path d="M47.3699 237.713L47.3442 237.52C47.3442 237.52 50.4411 234.666 61.6778 234.666C67.2623 234.666 74.8582 235.371 85.0838 237.48C85.037 237.479 84.9895 237.475 84.9421 237.468C81.393 236.921 70.2471 235.329 60.8101 235.329C55.2006 235.329 50.1964 235.891 47.7461 237.569C47.6269 237.65 47.4982 237.697 47.3699 237.713" fill="#8DAEE0"/>
<path d="M89.7722 192.484C88.4672 176.751 96.9498 173.101 96.9498 173.101C90.1683 178.513 89.7722 192.484 89.7722 192.484Z" fill="#678ACF"/>
<path d="M59.8651 227.799C59.8651 227.799 56.3045 165.943 69.3594 161.979C69.3594 161.979 61.1701 166.441 59.8651 227.799" fill="#678ACF"/>
</svg>
